<svg viewBox="0 0 185 118" xmlns="http://www.w3.org/2000/svg">
  <!-- Z: Neural Network -->
  <line x1="5" y1="5" x2="90" y2="5" stroke="#D4704A" stroke-width="5" opacity="0.65"/>
  <circle cx="5" cy="5" r="5.5" fill="#D4704A"/>
  <circle cx="27" cy="5" r="3.5" fill="#D4704A" opacity="0.6"/>
  <circle cx="48" cy="5" r="4" fill="#D4704A" opacity="0.7"/>
  <circle cx="69" cy="5" r="3.5" fill="#D4704A" opacity="0.6"/>
  <circle cx="90" cy="5" r="5.5" fill="#D4704A"/>

  <line x1="90" y1="5" x2="5" y2="105" stroke="#D4704A" stroke-width="4.5" opacity="0.6"/>
  <circle cx="73" cy="27" r="3" fill="#D4704A" opacity="0.4"/>
  <circle cx="58" cy="47" r="3.5" fill="#D4704A" opacity="0.45"/>
  <circle cx="42" cy="67" r="3" fill="#D4704A" opacity="0.4"/>
  <circle cx="22" cy="90" r="3.5" fill="#D4704A" opacity="0.45"/>

  <line x1="5" y1="105" x2="90" y2="105" stroke="#D4704A" stroke-width="5" opacity="0.65"/>
  <circle cx="5" cy="105" r="5.5" fill="#D4704A"/>
  <circle cx="27" cy="105" r="3.5" fill="#D4704A" opacity="0.6"/>
  <circle cx="48" cy="105" r="4" fill="#D4704A" opacity="0.7"/>
  <circle cx="69" cy="105" r="3.5" fill="#D4704A" opacity="0.6"/>
  <circle cx="90" cy="105" r="5.5" fill="#D4704A"/>

  <line x1="5" y1="11" x2="58" y2="47" stroke="#D4704A" stroke-width="1.8" opacity="0.25"/>
  <line x1="27" y1="11" x2="42" y2="67" stroke="#D4704A" stroke-width="1.8" opacity="0.22"/>
  <line x1="69" y1="11" x2="22" y2="90" stroke="#D4704A" stroke-width="1.8" opacity="0.22"/>
  <line x1="73" y1="33" x2="27" y2="105" stroke="#D4704A" stroke-width="1.8" opacity="0.22"/>
  <line x1="42" y1="73" x2="69" y2="105" stroke="#D4704A" stroke-width="1.8" opacity="0.22"/>

  <!-- B: Circuit Board (moved closer to Z) -->
  <line x1="110" y1="5" x2="110" y2="112" stroke="#2D2D2D" stroke-width="3.2" stroke-linecap="square"/>

  <path d="M110,5 L148,5 L162,17 L162,42 L148,54 L110,54" fill="none" stroke="#2D2D2D" stroke-width="2.4" stroke-linejoin="miter" stroke-linecap="square"/>
  <path d="M110,54 L155,54 L172,68 L172,98 L155,112 L110,112" fill="none" stroke="#2D2D2D" stroke-width="2.4" stroke-linejoin="miter" stroke-linecap="square"/>

  <rect x="106" y="1" width="8" height="8" rx="1.5" fill="#2D2D2D"/>
  <rect x="144" y="0" width="9" height="9" rx="1.2" fill="none" stroke="#2D2D2D" stroke-width="2"/>
  <rect x="158" y="37" width="8" height="8" rx="1.2" fill="none" stroke="#2D2D2D" stroke-width="1.8"/>
  <rect x="151" y="49" width="9" height="9" rx="1.2" fill="none" stroke="#2D2D2D" stroke-width="2"/>
  <rect x="168" y="63" width="8" height="8" rx="1.2" fill="none" stroke="#2D2D2D" stroke-width="1.8"/>
  <rect x="168" y="93" width="8" height="8" rx="1.2" fill="none" stroke="#2D2D2D" stroke-width="1.8"/>
  <rect x="106" y="108" width="8" height="8" rx="1.5" fill="#2D2D2D"/>

  <line x1="162" y1="30" x2="172" y2="30" stroke="#2D2D2D" stroke-width="1.5" opacity="0.55"/>
  <line x1="172" y1="30" x2="172" y2="37" stroke="#2D2D2D" stroke-width="1.5" opacity="0.55"/>
  <circle cx="172" cy="37" r="2.5" fill="#2D2D2D" opacity="0.55"/>
  <line x1="172" y1="82" x2="182" y2="82" stroke="#2D2D2D" stroke-width="1.5" opacity="0.55"/>
  <line x1="182" y1="82" x2="182" y2="89" stroke="#2D2D2D" stroke-width="1.5" opacity="0.55"/>
  <circle cx="182" cy="89" r="2.5" fill="#2D2D2D" opacity="0.55"/>

  <circle cx="132" cy="5" r="2.8" fill="#D4704A" opacity="0.75"/>
  <circle cx="162" cy="30" r="2.5" fill="#D4704A" opacity="0.6"/>
  <circle cx="136" cy="54" r="2.8" fill="#D4704A" opacity="0.7"/>
  <circle cx="172" cy="82" r="2.5" fill="#D4704A" opacity="0.6"/>
</svg>
