<svg viewBox="0 0 220 110" xmlns="http://www.w3.org/2000/svg">
  <!-- Z: Neural Network -->
  <line x1="5" y1="5" x2="90" y2="5" stroke="#D4704A" stroke-width="2" opacity="0.45"/>
  <circle cx="5" cy="5" r="5.5" fill="#D4704A"/>
  <circle cx="27" cy="5" r="3.5" fill="#D4704A" opacity="0.6"/>
  <circle cx="48" cy="5" r="4" fill="#D4704A" opacity="0.7"/>
  <circle cx="69" cy="5" r="3.5" fill="#D4704A" opacity="0.6"/>
  <circle cx="90" cy="5" r="5.5" fill="#D4704A"/>

  <line x1="90" y1="5" x2="5" y2="105" stroke="#D4704A" stroke-width="1.8" opacity="0.4"/>
  <circle cx="73" cy="27" r="3" fill="#D4704A" opacity="0.4"/>
  <circle cx="58" cy="47" r="3.5" fill="#D4704A" opacity="0.45"/>
  <circle cx="42" cy="67" r="3" fill="#D4704A" opacity="0.4"/>
  <circle cx="22" cy="90" r="3.5" fill="#D4704A" opacity="0.45"/>

  <line x1="5" y1="105" x2="90" y2="105" stroke="#D4704A" stroke-width="2" opacity="0.45"/>
  <circle cx="5" cy="105" r="5.5" fill="#D4704A"/>
  <circle cx="27" cy="105" r="3.5" fill="#D4704A" opacity="0.6"/>
  <circle cx="48" cy="105" r="4" fill="#D4704A" opacity="0.7"/>
  <circle cx="69" cy="105" r="3.5" fill="#D4704A" opacity="0.6"/>
  <circle cx="90" cy="105" r="5.5" fill="#D4704A"/>

  <line x1="5" y1="11" x2="58" y2="47" stroke="#D4704A" stroke-width="0.5" opacity="0.13"/>
  <line x1="27" y1="11" x2="42" y2="67" stroke="#D4704A" stroke-width="0.5" opacity="0.1"/>
  <line x1="69" y1="11" x2="22" y2="90" stroke="#D4704A" stroke-width="0.5" opacity="0.1"/>
  <line x1="73" y1="33" x2="27" y2="105" stroke="#D4704A" stroke-width="0.5" opacity="0.1"/>
  <line x1="42" y1="73" x2="69" y2="105" stroke="#D4704A" stroke-width="0.5" opacity="0.1"/>

  <!-- B: Circuit Board -->
  <line x1="148" y1="5" x2="148" y2="110" stroke="#2D2D2D" stroke-width="3.2" stroke-linecap="square"/>

  <path d="M148,5 L186,5 L200,17 L200,42 L186,54 L148,54" fill="none" stroke="#2D2D2D" stroke-width="2.4" stroke-linejoin="miter" stroke-linecap="square"/>
  <path d="M148,54 L193,54 L210,68 L210,98 L193,112 L148,112" fill="none" stroke="#2D2D2D" stroke-width="2.4" stroke-linejoin="miter" stroke-linecap="square"/>

  <rect x="144" y="0" width="8" height="8" rx="1.5" fill="#2D2D2D"/>
  <rect x="183" y="1" width="7" height="7" rx="1" fill="none" stroke="#2D2D2D" stroke-width="1.3"/>
  <rect x="197" y="38" width="6" height="6" rx="1" fill="none" stroke="#2D2D2D" stroke-width="1"/>
  <rect x="190" y="50" width="7" height="7" rx="1" fill="none" stroke="#2D2D2D" stroke-width="1.3"/>
  <rect x="207" y="64" width="6" height="6" rx="1" fill="none" stroke="#2D2D2D" stroke-width="1"/>
  <rect x="207" y="94" width="6" height="6" rx="1" fill="none" stroke="#2D2D2D" stroke-width="1"/>
  <rect x="144" y="108" width="8" height="8" rx="1.5" fill="#2D2D2D"/>

  <line x1="200" y1="30" x2="208" y2="30" stroke="#2D2D2D" stroke-width="0.8" opacity="0.35"/>
  <line x1="208" y1="30" x2="208" y2="36" stroke="#2D2D2D" stroke-width="0.8" opacity="0.35"/>
  <circle cx="208" cy="36" r="1.5" fill="#2D2D2D" opacity="0.35"/>
  <line x1="210" y1="82" x2="218" y2="82" stroke="#2D2D2D" stroke-width="0.8" opacity="0.35"/>
  <line x1="218" y1="82" x2="218" y2="88" stroke="#2D2D2D" stroke-width="0.8" opacity="0.35"/>
  <circle cx="218" cy="88" r="1.5" fill="#2D2D2D" opacity="0.35"/>

  <circle cx="170" cy="5" r="2" fill="#D4704A" opacity="0.65"/>
  <circle cx="200" cy="30" r="1.8" fill="#D4704A" opacity="0.45"/>
  <circle cx="174" cy="54" r="2" fill="#D4704A" opacity="0.55"/>
  <circle cx="210" cy="82" r="1.8" fill="#D4704A" opacity="0.45"/>
</svg>
